<?xml version="1.0" encoding="UTF-8" standalone="no"?>
<!DOCTYPE svg PUBLIC "-//W3C//DTD SVG 1.1//EN"
 "http://www.w3.org/Graphics/SVG/1.1/DTD/svg11.dtd">
<!-- Generated by graphviz version 2.42.3 (20191010.1750)
 -->
<!-- Title: G Pages: 1 -->
<svg width="400pt" height="409pt"
 viewBox="0.00 0.00 288.00 294.50" xmlns="http://www.w3.org/2000/svg" xmlns:xlink="http://www.w3.org/1999/xlink">
<g id="graph0" class="graph" transform="scale(0.73 0.73) rotate(0) translate(4 296)">
<title>G</title>
<polygon fill="white" stroke="#000000" points="-4,4 -4,-296 289.38,-296 289.38,4 -4,4"/>
<g id="clust1" class="cluster">
<title>cluster_machine</title>
<polygon fill="#f7fbff" stroke="black" points="8,-8 8,-284 278.38,-284 278.38,-8 8,-8"/>
<text text-anchor="middle" x="143.19" y="-268.8" font-family="Times,serif" font-size="14.00">Single machine</text>
</g>
<g id="clust3" class="cluster">
<title>cluster_diskdir</title>
<polygon fill="#deebf7" stroke="black" points="154.89,-16 154.89,-253 270.38,-253 270.38,-16 154.89,-16"/>
<text text-anchor="middle" x="212.64" y="-237.8" font-family="Times,serif" font-size="14.00">disk directory</text>
</g>
<g id="clust2" class="cluster">
<title>cluster_diskframe</title>
<polygon fill="#deebf7" stroke="black" points="16,-16 16,-253 126.89,-253 126.89,-16 16,-16"/>
<text text-anchor="middle" x="71.45" y="-237.8" font-family="Times,serif" font-size="14.00">disk.frame</text>
</g>
<!-- chunk4 -->
<g id="node1" class="node">
<title>chunk4</title>
<ellipse fill="white" stroke="black" cx="71.45" cy="-204" rx="47.39" ry="18"/>
<text text-anchor="middle" x="71.45" y="-200.3" font-family="Times,serif" font-size="14.00">chunk 4</text>
</g>
<!-- fstfile4 -->
<g id="node5" class="node">
<title>fstfile4</title>
<ellipse fill="white" stroke="black" cx="212.64" cy="-204" rx="48.99" ry="18"/>
<text text-anchor="middle" x="212.64" y="-200.3" font-family="Times,serif" font-size="14.00">file&#45;4.fst</text>
</g>
<!-- chunk4&#45;&gt;fstfile4 -->
<g id="edge4" class="edge">
<title>chunk4&#45;&gt;fstfile4</title>
<path fill="none" stroke="black" d="M119.18,-204C130.19,-204 142.05,-204 153.49,-204"/>
<polygon fill="black" stroke="black" points="153.84,-207.5 163.84,-204 153.84,-200.5 153.84,-207.5"/>
</g>
<!-- chunk3 -->
<g id="node2" class="node">
<title>chunk3</title>
<ellipse fill="white" stroke="black" cx="71.45" cy="-150" rx="47.39" ry="18"/>
<text text-anchor="middle" x="71.45" y="-146.3" font-family="Times,serif" font-size="14.00">chunk 3</text>
</g>
<!-- fstfile3 -->
<g id="node6" class="node">
<title>fstfile3</title>
<ellipse fill="white" stroke="black" cx="212.64" cy="-150" rx="48.99" ry="18"/>
<text text-anchor="middle" x="212.64" y="-146.3" font-family="Times,serif" font-size="14.00">file&#45;3.fst</text>
</g>
<!-- chunk3&#45;&gt;fstfile3 -->
<g id="edge3" class="edge">
<title>chunk3&#45;&gt;fstfile3</title>
<path fill="none" stroke="black" d="M119.18,-150C130.19,-150 142.05,-150 153.49,-150"/>
<polygon fill="black" stroke="black" points="153.84,-153.5 163.84,-150 153.84,-146.5 153.84,-153.5"/>
</g>
<!-- chunk2 -->
<g id="node3" class="node">
<title>chunk2</title>
<ellipse fill="white" stroke="black" cx="71.45" cy="-96" rx="47.39" ry="18"/>
<text text-anchor="middle" x="71.45" y="-92.3" font-family="Times,serif" font-size="14.00">chunk 2</text>
</g>
<!-- fstfile2 -->
<g id="node7" class="node">
<title>fstfile2</title>
<ellipse fill="white" stroke="black" cx="212.64" cy="-96" rx="48.99" ry="18"/>
<text text-anchor="middle" x="212.64" y="-92.3" font-family="Times,serif" font-size="14.00">file&#45;2.fst</text>
</g>
<!-- chunk2&#45;&gt;fstfile2 -->
<g id="edge2" class="edge">
<title>chunk2&#45;&gt;fstfile2</title>
<path fill="none" stroke="black" d="M119.18,-96C130.19,-96 142.05,-96 153.49,-96"/>
<polygon fill="black" stroke="black" points="153.84,-99.5 163.84,-96 153.84,-92.5 153.84,-99.5"/>
</g>
<!-- chunk1 -->
<g id="node4" class="node">
<title>chunk1</title>
<ellipse fill="white" stroke="black" cx="71.45" cy="-42" rx="47.39" ry="18"/>
<text text-anchor="middle" x="71.45" y="-38.3" font-family="Times,serif" font-size="14.00">chunk 1</text>
</g>
<!-- fstfile1 -->
<g id="node8" class="node">
<title>fstfile1</title>
<ellipse fill="white" stroke="black" cx="212.64" cy="-42" rx="48.99" ry="18"/>
<text text-anchor="middle" x="212.64" y="-38.3" font-family="Times,serif" font-size="14.00">file&#45;1.fst</text>
</g>
<!-- chunk1&#45;&gt;fstfile1 -->
<g id="edge1" class="edge">
<title>chunk1&#45;&gt;fstfile1</title>
<path fill="none" stroke="black" d="M119.18,-42C130.19,-42 142.05,-42 153.49,-42"/>
<polygon fill="black" stroke="black" points="153.84,-45.5 163.84,-42 153.84,-38.5 153.84,-45.5"/>
</g>
</g>
</svg>
